<svg width="70" height="70" viewBox="0 0 70 70" fill="none" xmlns="http://www.w3.org/2000/svg">
<path d="M24.9472 61.3728C35.0141 63.2694 33.8172 62.9848 37.2515 62.9848C40.6858 62.9848 41.4404 62.9221 44.762 62.4714C48.4991 61.9643 51.0825 61.196 53.3228 59.2293C54.7439 57.9818 56.3077 56.6548 58.8421 52.135C59.8791 50.2854 61.0394 48.0151 61.5808 45.0969C62.0424 42.6088 62.4324 39.9835 61.97 37.0797C61.4735 33.962 60.9852 30.6998 59.7584 28.3966C57.9706 25.0404 55.3714 20.8328 52.0077 18.8269C49.3145 17.2208 46.3831 15.5926 43.4582 14.9038C40.5349 14.2154 36.4099 13.4454 31.342 13.2579C28.8759 13.1667 26.5788 13.1106 24.5566 13.5137L24.4661 13.5317C18.4323 14.7345 16.1301 15.1934 14.7288 16.9505C13.1366 18.947 10.4364 22.3356 9.32318 27.5423C8.44358 31.6561 7.4828 36.415 8.09835 40.5943C8.80999 45.4259 8.66249 46.8593 11.6403 51.4087C12.7714 53.1368 15.1184 56.5281 18.6065 58.7459C20.1813 59.7472 21.8099 60.7817 24.9472 61.3728Z" stroke="black" stroke-width="3.8" stroke-linecap="round"/>
<path d="M51.3215 14.0038C48.7113 15.5592 44.3276 19.5526 44.1201 20.729C44.1562 21.4447 47.2993 22.3954 47.5905 22.5894C49.0387 23.494 53.6168 25.6283 57.8388 28.1445C60.8986 29.988 63.2356 31.9421 63.6881 31.5122C63.9957 31.2201 64.3576 30.345 64.3458 28.9368C64.3259 26.5848 64.5206 21.581 63.1631 18.6938C61.2175 14.5557 60.3736 12.8512 58.9884 12.3333C57.6687 11.8398 55.1259 11.7367 51.3215 14.0038Z" fill="black" stroke="black" stroke-width="3.8" stroke-linecap="round"/>
<path d="M9.1309 29.1642C18.6149 24.7923 19.5623 24.153 20.7038 23.3016C21.3421 22.8254 21.7984 22.9072 22.5789 22.2218C23.0314 21.8246 24.6064 21.6358 24.6138 20.7026C24.4687 19.3142 23.8831 17.507 21.4888 16.0924C18.8985 14.5621 12.9602 11.2927 9.65176 11.1628C9.29431 11.1488 8.83896 11.1608 8.68203 11.4614C7.78376 13.1818 6.90171 16.4292 6.76488 22.0736C6.6652 26.1858 6.58021 28.8938 6.88038 29.4776C7.01809 29.7455 7.27432 30.02 9.1309 29.1642Z" fill="black" stroke="black" stroke-width="3.8" stroke-linecap="round"/>
<path d="M21.0763 41.7107C20.9531 41.3093 20.8287 39.7313 21.0404 38.0269C21.2365 36.4478 22.3434 35.0086 23.5715 33.7558C24.6203 32.6859 26.9014 33.1138 29.1236 33.6159C32.228 34.3175 32.4458 36.2238 32.9735 37.2457C33.096 37.5251 33.1964 37.8314 33.2581 38.2648C33.3199 38.6983 33.34 39.2496 33.4215 39.8177" stroke="black" stroke-width="3.4" stroke-linecap="round"/>
<path d="M42.3403 39.8376C42.3587 39.2772 42.8028 37.3714 43.4823 36.2737C44.1013 35.2737 45.1532 34.51 46.3391 34.1517C47.9009 33.6799 50.1583 34.716 51.6209 35.5405C52.8204 36.2166 53.5684 37.6205 54.1082 38.8089C54.2606 39.3543 54.3227 39.9137 54.2716 40.5511C54.2206 40.9025 54.1185 41.3109 54.0122 42.2267" stroke="black" stroke-width="3.4" stroke-linecap="round"/>
<path d="M33.819 47.2871C34.1608 47.2269 35.5344 47.1046 37.0067 47.2175C38.9037 47.3107 40.4031 47.2718 41.54 47.1699C41.8253 47.1496 42.1064 47.1295 42.3959 47.1088" stroke="black" stroke-width="3.4" stroke-linecap="round"/>
<path d="M4 42.8455C4.02007 42.8254 4.04015 42.8054 4.25123 42.7549C4.4623 42.7044 4.86378 42.6241 6.51659 42.5626C8.16941 42.5012 11.0614 42.4611 14.041 42.5435" stroke="black" stroke-width="3.4" stroke-linecap="round"/>
<path d="M17.6184 48.9169C17.3525 49.162 15.8316 50.0679 8.96077 51.5864C7.53845 51.8624 7.273 51.8828 6.96268 51.9138C6.65236 51.9447 6.30522 51.9855 6.00525 51.7843" stroke="black" stroke-width="3.4" stroke-linecap="round"/>
<path d="M57.748 44.4334C57.9487 44.4334 59.8186 44.9847 62.8769 46.0038C64.1686 46.4716 64.9321 46.8392 65.4659 47.0796C65.9998 47.32 66.2808 47.4221 66.6312 47.5273" stroke="black" stroke-width="3.4" stroke-linecap="round"/>
<path d="M54.3824 51.821C54.4226 51.821 54.6842 52.2498 55.5008 53.5019C56.0765 54.3252 56.9799 55.53 57.6359 56.2936C58.2919 57.0571 58.6733 57.343 59.3705 57.8232" stroke="black" stroke-width="3.4" stroke-linecap="round"/>
</svg>
