<svg width="78" height="78" viewBox="0 0 78 78" fill="none" xmlns="http://www.w3.org/2000/svg">
<g clip-path="url(#clip0_3_51)">
<rect width="78" height="78" rx="39" fill="#F5F4F0"/>
<path fill-rule="evenodd" clip-rule="evenodd" d="M50.7064 13.6066C51.9043 13.5771 52.9607 13.9305 54.0333 14.5365C55.0559 15.1143 56.1922 15.9799 57.5618 17.0802C58.8968 18.1529 59.8365 19.1266 60.4854 20.1173C61.1556 21.1406 61.4556 22.0913 61.6323 23.0116L61.6981 23.3512L61.6392 23.6929C61.4622 24.7197 60.9997 25.6277 60.351 26.3512C62.3271 27.9638 63.7339 30.4505 64.9792 32.5949C66.5017 35.2168 66.9733 38.2587 67.2829 40.8643C67.6119 43.6324 66.9917 45.9987 66.366 48.1071C65.8988 49.6815 65.1493 51.2513 64.4045 52.6703C63.8421 53.7418 63.3562 54.5999 62.9003 55.4386C64.7974 56.007 66.5443 56.6347 67.8785 57.2064C68.6268 57.527 69.3007 57.8538 69.8099 58.165C70.0547 58.3147 70.3418 58.5082 70.5875 58.7441C70.7097 58.8615 70.8819 59.0467 71.0272 59.2975C71.1507 59.5107 71.3198 59.8859 71.3147 60.3683L71.3007 60.5814L71.2629 60.8147C71.0274 61.9457 70.1089 62.554 69.6546 62.8121C69.0691 63.1448 68.3781 63.3826 67.8044 63.5589C67.1696 63.754 66.3848 63.7658 65.7128 63.7464C64.97 63.7251 64.074 63.6509 63.0788 63.5459C61.0924 63.3364 58.5329 62.9859 55.7095 62.623C53.7341 62.369 52.4541 61.863 51.5466 61.3728C51.2355 61.2048 50.9276 61.0124 50.7519 60.9027C50.5627 60.9387 50.3205 61.0248 50.0138 61.1974C49.5563 61.4549 49.0688 61.839 48.5391 62.3123C48.2785 62.5452 48.0232 62.7845 47.7625 63.0307C47.5094 63.2696 47.2411 63.5244 46.9841 63.7539C46.7291 63.9816 46.4451 64.2219 46.151 64.4273C45.8734 64.6212 45.4777 64.8627 45.0023 64.9925C43.9895 65.2687 43.1469 64.9308 42.5726 64.5806C40.9997 63.6209 39.7595 62.2254 38.9034 61.1805C38.6847 60.9135 38.4829 60.6584 38.3065 60.4358C38.1255 60.2073 37.9773 60.0211 37.8477 59.8648C37.8321 59.846 37.8164 59.8284 37.8023 59.8116C37.6866 59.8266 37.5202 59.8624 37.2925 59.9399C36.7748 60.1161 36.1616 60.4332 35.4673 60.8494C34.7459 61.282 34.1394 61.6925 33.4287 62.1379C32.8403 62.5066 32.0579 62.982 31.3346 63.182C28.8939 63.8569 25.6397 64.1176 23.1247 63.6315C19.1752 62.8682 17.4516 62.5061 14.313 62.9653C13.8621 63.0313 13.358 63.0494 12.8523 62.9152C12.2858 62.7647 11.8668 62.4641 11.5664 62.1299C10.9583 61.4528 10.8213 60.5852 10.8251 60.0445L10.8288 59.4901L11.1303 59.0247C11.7364 58.0888 12.5582 57.0967 13.2578 56.3138C13.9435 55.5464 14.6159 54.8649 14.9555 54.5776L15.0515 54.4962L15.1575 54.4281C15.2274 54.3833 15.2995 54.3405 15.3732 54.2993C13.8586 52.5086 11.8682 49.9521 10.8519 47.9877C8.9461 44.3036 9.01717 39.3234 9.74465 35.2729C9.80269 34.9499 9.882 34.6354 9.97634 34.329C9.30903 34.2271 8.55408 34.0264 7.92197 33.6186C6.733 32.8512 6.20778 31.6352 5.92274 30.7985C4.92081 27.8566 5.98491 24.864 6.80933 22.7465C7.88064 19.9952 9.96267 19.2432 11.1773 18.7379C12.6567 18.1224 14.5934 17.853 16.3061 17.8819C17.1782 17.8967 18.0634 17.9895 18.8653 18.1868C19.6301 18.3751 20.5038 18.7029 21.1796 19.3122C22.0939 20.1368 22.5282 21.1933 22.7387 22.1703C22.7475 22.2109 22.7538 22.2524 22.7619 22.2932C23.3998 22.1072 24.0919 21.9381 24.8377 21.7815C26.7811 21.3734 29.2071 21.0244 32.1901 20.6936C35.5406 20.3219 39.7515 20.5617 43.0822 20.8231C42.9327 19.6559 43.246 18.6077 43.6646 17.7671C44.0975 16.8983 44.6968 16.1399 45.2097 15.5451C46.0223 14.6029 47.0793 14.145 48.0239 13.9093C48.957 13.6766 49.9239 13.6258 50.7064 13.6066ZM51.0475 25.8842C49.3423 25.4174 47.2065 24.9764 43.8314 24.6958C40.32 24.4038 35.9038 24.1041 32.609 24.4696C29.6744 24.7951 27.3874 25.1286 25.6187 25.5C23.8303 25.8755 22.6851 26.2678 21.9672 26.6593C20.0693 27.6941 18.3224 28.8303 17.0044 30.432C16.1461 31.4752 15.3537 32.3868 14.6906 33.353C14.0375 34.3045 13.6284 35.1484 13.4853 35.9447C12.8079 39.7164 12.9009 43.6762 14.2277 46.2412C15.4053 48.5174 18.4665 52.1554 19.66 53.4155C20.2224 54.0093 20.3245 54.8699 19.9823 55.5627C19.9238 56.4086 19.302 57.1406 18.4296 57.2999C17.7298 57.4277 17.421 57.5314 17.2919 57.5863C17.0715 57.796 16.6245 58.2485 16.0909 58.8457C16.0494 58.8921 16.0088 58.9399 15.9671 58.9871C18.6341 58.8594 20.7345 59.2999 23.8462 59.9012C25.6767 60.255 28.3284 60.0711 30.3221 59.5198C30.3267 59.5183 30.3537 59.5092 30.4071 59.4861C30.4686 59.4595 30.549 59.4206 30.651 59.3665C30.8587 59.2563 31.1091 59.1073 31.4111 58.9181C31.9609 58.5735 32.7746 58.0325 33.513 57.5897C34.2785 57.1308 35.1663 56.6491 36.0689 56.342C36.8889 56.0629 37.95 55.8482 39.0252 56.1423L39.2406 56.208L39.4261 56.2811C39.8413 56.4655 40.1304 56.7429 40.2476 56.8569C40.4353 57.0396 40.6167 57.2505 40.7738 57.44C40.9355 57.6351 41.1121 57.8578 41.2851 58.0761C41.4628 58.3004 41.6462 58.5327 41.8427 58.7725C42.5585 59.6462 43.3536 60.5093 44.2208 61.1179C44.289 61.0611 44.3669 60.9963 44.4529 60.9195C44.6622 60.7325 44.8884 60.5181 45.1545 60.2669C45.4128 60.0231 45.7025 59.7507 46.0067 59.4788C46.6073 58.9422 47.3348 58.3443 48.1491 57.8859C48.9643 57.4271 49.9807 57.0422 51.1292 57.0836C51.8426 57.1094 52.4001 57.4582 52.5961 57.576C52.9119 57.7658 53.0476 57.8647 53.3528 58.0296C53.8516 58.299 54.6835 58.6592 56.194 58.8534C59.0726 59.2234 61.5487 59.5631 63.4779 59.7666C63.704 59.7904 63.9206 59.8113 64.1268 59.8308C63.1953 59.5037 62.161 59.1726 61.0779 58.8644C60.7615 58.7744 59.9603 58.5517 59.3642 57.9817C59.0052 57.6382 58.6771 57.1329 58.5965 56.47C58.5198 55.8381 58.6948 55.2806 58.9116 54.8543L59.3999 53.9249C59.9298 52.9398 60.5573 51.8229 61.0394 50.9043C61.7529 49.5449 62.3633 48.2381 62.723 47.0264C63.3299 44.9811 63.7411 43.2563 63.5103 41.3134C63.2018 38.7178 62.7851 36.3837 61.6937 34.5039C60.2519 32.0211 59.1514 30.1792 57.7635 29.1474C56.0749 27.8922 53.9782 26.6863 51.0475 25.8842Z" fill="black"/>
<path d="M24.8147 43.6517C26.7199 43.9047 28.2485 42.9028 28.545 42.6828C29.0099 42.4052 29.5801 41.9112 29.8121 41.697C30.2299 41.2469 30.6547 40.4348 31.0138 37.9642C30.8949 36.6835 30.9703 34.9515 29.3546 34.2584C27.6908 33.5447 25.9911 32.7542 25.0182 33.3238C24.5482 33.599 23.5333 34.3364 22.6358 35.7429C21.4448 37.6095 20.6513 39.3171 21.2807 40.9784C21.5464 41.6798 21.874 42.3366 22.4457 42.6828L22.4634 42.6935C23.0532 43.0507 23.8296 43.5209 24.8147 43.6517Z" stroke="black" stroke-width="3.4" stroke-linecap="round"/>
<path d="M42.2332 41.329C44.545 42.5421 45.5654 42.4706 46.045 42.5421C46.7058 42.3896 48.1265 42.2503 48.545 41.9954C49.9005 40.4319 50.6181 39.3686 50.89 37.7322C50.6997 36.2967 49.5766 34.7859 48.1227 33.8223C46.9002 33.0121 45.2334 32.1088 44.2387 32.7096L44.2256 32.7175C42.6914 33.6442 41.4037 34.4219 40.9568 35.4927C40.508 36.5679 40.0999 38.4808 40.6706 39.8913C40.8995 40.4571 41.3699 40.876 42.2332 41.329Z" stroke="black" stroke-width="3.4" stroke-linecap="round"/>
<path d="M33.4773 44.479C33.7488 44.8967 34.4134 45.8343 34.8633 46.1314C35.2904 46.4134 36.045 45.4968 36.8216 44.9174C37.8347 44.1613 38.8114 45.6831 39.4269 45.4968C39.7392 45.3572 40.0514 45.1261 40.9708 44.6415" stroke="black" stroke-width="3.4" stroke-linecap="round"/>
</g>
<defs>
<clipPath id="clip0_3_51">
<rect width="78" height="78" rx="39" fill="white"/>
</clipPath>
</defs>
</svg>
