<svg width="78" height="78" viewBox="0 0 78 78" fill="none" xmlns="http://www.w3.org/2000/svg">
<rect width="78" height="78" rx="39" fill="#F5F4F0"/>
<path d="M18.236 54.7269C17.019 53.442 13.8013 49.6446 12.4949 47.1194C10.8784 43.9948 10.868 39.5251 11.5705 35.6139C11.992 33.2666 13.866 31.2061 15.4924 29.2295C17.0469 27.3401 19.0553 26.0637 21.013 24.9963C22.93 23.9511 26.4371 23.243 32.3549 22.5866C35.8619 22.1976 40.4591 22.5173 43.9443 22.8071C47.4295 23.0968 49.6804 23.5572 51.5044 24.0565C54.7016 24.9316 57.009 26.257 58.8525 27.6275C60.6203 28.9418 61.9149 31.1833 63.2918 33.5544C64.599 35.8054 65.0428 38.493 65.3519 41.0939C65.6319 43.4495 65.1163 45.4945 64.4999 47.5715C63.6731 50.3579 61.7792 53.3238 60.5599 55.7206C60.1416 56.5429 60.8404 56.8396 61.5532 57.0424C65.8216 58.2568 69.4315 59.8269 69.3689 60.3678C69.2964 60.9932 68.3044 61.4085 67.2014 61.7476C65.9781 62.1236 61.6094 61.4761 55.9067 60.7431C52.4205 60.295 51.6858 59.012 51.016 58.9878C48.3003 58.8896 45.8169 62.7933 44.4572 63.1642C44.1469 63.2489 43.8578 63.171 43.5173 62.9632C40.9468 61.3951 39.2282 58.2301 38.5869 58.0131C36.3042 57.241 32.4275 60.9013 30.7833 61.3559C28.5661 61.969 25.6137 62.1913 23.4409 61.7714C19.5085 61.0114 17.4901 60.5786 13.993 61.0903C13.3691 61.1816 13.1077 61.0571 12.9347 60.8645C12.7616 60.6719 12.6786 60.3448 12.6806 60.0626C13.7373 58.4309 15.6691 56.4296 16.1375 56.0333C16.4467 55.8354 16.9011 55.644 18.0442 55.4353" stroke="black" stroke-width="3.8" stroke-linecap="round"/>
<path d="M12.5 32.5C12.5 32.5 10.0377 32.7564 8.9073 32.027C8.27734 31.6205 7.92743 30.9273 7.67661 30.1911C6.92419 27.9825 7.69055 25.6111 8.53564 23.4405C9.28891 21.5058 10.6363 21.0069 11.862 20.497C14.202 19.5234 18.5 19.5 19.862 20.7283C20.9065 21.6703 21.0376 23.2887 21 25" stroke="black" stroke-width="3.8" stroke-linecap="round"/>
<path d="M45.5 22.5C45.2289 22.2936 45.2262 22.4505 44.9352 20.6852C44.6993 19.2542 45.643 17.9049 46.6036 16.7908C47.5407 15.704 49.1909 15.5482 50.7085 15.5108C52.2246 15.4735 53.5739 16.3547 56.327 18.5666C58.8173 20.5675 59.436 21.8875 59.7216 23.3748C59.5876 24.1518 59.2034 24.8221 58.6641 25.3209C58.3927 25.5395 58.1257 25.688 57.6665 25.9277" stroke="black" stroke-width="3.8" stroke-linecap="round"/>
<path d="M24.7698 43.6564C26.675 43.9093 28.2035 42.9074 28.5 42.6874C28.9649 42.4098 29.5351 41.9159 29.7671 41.7016C30.185 41.2515 30.6098 40.4394 30.9688 37.9688C30.8499 36.6881 30.9254 34.9561 29.3097 34.2631C27.6458 33.5494 25.9461 32.7588 24.9732 33.3284C24.5033 33.6036 23.4883 34.341 22.5909 35.7475C21.3998 37.6142 20.6063 39.3217 21.2357 40.9831C21.5014 41.6844 21.829 42.3412 22.4007 42.6874L22.4184 42.6981C23.0082 43.0553 23.7847 43.5256 24.7698 43.6564Z" stroke="black" stroke-width="3.4" stroke-linecap="round"/>
<path d="M42.1883 41.3337C44.5 42.5468 45.5204 42.4752 46 42.5468C46.6608 42.3943 48.0816 42.2549 48.5 42C49.8556 40.4365 50.5732 39.3733 50.845 37.7368C50.6547 36.3013 49.5317 34.7905 48.0777 33.8269C46.8553 33.0167 45.1885 32.1134 44.1937 32.7142L44.1806 32.7221C42.6464 33.6488 41.3588 34.4265 40.9118 35.4973C40.463 36.5725 40.055 38.4855 40.6257 39.8959C40.8546 40.4617 41.325 40.8806 42.1883 41.3337Z" stroke="black" stroke-width="3.4" stroke-linecap="round"/>
<path d="M33.4323 44.4836C33.7038 44.9013 34.3684 45.8389 34.8184 46.136C35.2454 46.418 36 45.5014 36.7766 44.922C37.7897 44.1659 38.7664 45.6877 39.3819 45.5014C39.6942 45.3618 40.0064 45.1307 40.9259 44.6461" stroke="black" stroke-width="3.4" stroke-linecap="round"/>
</svg>
