<svg width="70" height="70" viewBox="0 0 70 70" fill="none" xmlns="http://www.w3.org/2000/svg">
<g clip-path="url(#clip0_3_51)">
<path d="M14.236 50.7269C13.0191 49.442 9.80131 45.6446 8.49491 43.1194C6.87841 39.9948 6.868 35.5251 7.57049 31.6139C7.99207 29.2666 9.86604 27.2061 11.4924 25.2295C13.047 23.3401 15.0553 22.0637 17.0131 20.9963C18.93 19.9511 22.4371 19.243 28.3549 18.5866C31.8619 18.1976 36.4591 18.5173 39.9443 18.8071C43.4295 19.0968 45.6805 19.5572 47.5045 20.0565C50.7017 20.9316 53.009 22.257 54.8526 23.6275C56.6204 24.9418 57.9149 27.1833 59.2918 29.5544C60.599 31.8054 61.0428 34.493 61.3519 37.0939C61.6319 39.4495 61.1163 41.4945 60.5 43.5715C59.6731 46.3579 57.7792 49.3238 56.5599 51.7206C56.1416 52.5429 56.8404 52.8396 57.5533 53.0424C61.8216 54.2568 65.4316 55.8269 65.3689 56.3678C65.2964 56.9932 64.3044 57.4085 63.2014 57.7476C61.9781 58.1236 57.6095 57.4761 51.9068 56.7431C48.4206 56.295 47.6858 55.012 47.016 54.9878C44.3003 54.8896 41.8169 58.7933 40.4572 59.1642C40.1469 59.2489 39.8578 59.171 39.5173 58.9632C36.9468 57.3951 35.2282 54.2301 34.5869 54.0131C32.3042 53.241 28.4275 56.9013 26.7834 57.3559C24.5661 57.969 21.6137 58.1913 19.4409 57.7714C15.5085 57.0114 13.4902 56.5786 9.99302 57.0903C9.36918 57.1816 9.10769 57.0571 8.93468 56.8645C8.76167 56.6719 8.67866 56.3448 8.68062 56.0626C9.7373 54.4309 11.6691 52.4296 12.1375 52.0333C12.4467 51.8354 12.9011 51.644 14.0442 51.4353" stroke="black" stroke-width="3.8" stroke-linecap="round"/>
<path d="M8.49998 28.5C8.49998 28.5 6.03773 28.7564 4.9073 28.027C4.27734 27.6205 3.92743 26.9273 3.67661 26.1911C2.92419 23.9825 3.69055 21.6111 4.53564 19.4405C5.28891 17.5058 6.6363 17.0069 7.86202 16.497C10.202 15.5234 14.5 15.5 15.862 16.7283C16.9065 17.6703 17.0376 19.2887 17 21" stroke="black" stroke-width="3.8" stroke-linecap="round"/>
<path d="M41.5 18.5C41.2289 18.2936 41.2262 18.4505 40.9352 16.6852C40.6992 15.2542 41.6429 13.9049 42.6036 12.7908C43.5407 11.704 45.1909 11.5482 46.7085 11.5108C48.2245 11.4735 49.5739 12.3547 52.3269 14.5666C54.8173 16.5675 55.436 17.8875 55.7215 19.3748C55.5876 20.1518 55.2034 20.8221 54.6641 21.3209C54.3926 21.5395 54.1257 21.688 53.6664 21.9277" stroke="black" stroke-width="3.8" stroke-linecap="round"/>
<path d="M20.7698 39.6564C22.675 39.9093 24.2035 38.9074 24.5 38.6874C24.9649 38.4098 25.5351 37.9159 25.7671 37.7016C26.185 37.2515 26.6098 36.4394 26.9688 33.9688C26.8499 32.6881 26.9253 30.9561 25.3096 30.2631C23.6458 29.5494 21.9461 28.7588 20.9732 29.3284C20.5032 29.6036 19.4883 30.341 18.5908 31.7475C17.3998 33.6142 16.6063 35.3217 17.2357 36.9831C17.5014 37.6844 17.829 38.3412 18.4007 38.6874L18.4184 38.6981C19.0082 39.0553 19.7846 39.5256 20.7698 39.6564Z" stroke="black" stroke-width="3.4" stroke-linecap="round"/>
<path d="M38.1883 37.3337C40.5 38.5468 41.5204 38.4752 42 38.5468C42.6608 38.3943 44.0816 38.2549 44.5 38C45.8556 36.4365 46.5732 35.3733 46.845 33.7368C46.6547 32.3013 45.5317 30.7905 44.0777 29.8269C42.8553 29.0167 41.1885 28.1134 40.1937 28.7142L40.1806 28.7221C38.6464 29.6488 37.3588 30.4265 36.9118 31.4973C36.463 32.5725 36.055 34.4855 36.6257 35.8959C36.8546 36.4617 37.325 36.8806 38.1883 37.3337Z" stroke="black" stroke-width="3.4" stroke-linecap="round"/>
<path d="M29.4323 40.4836C29.7038 40.9013 30.3684 41.8389 30.8184 42.136C31.2454 42.418 32 41.5014 32.7766 40.922C33.7897 40.1659 34.7664 41.6877 35.3819 41.5014C35.6942 41.3618 36.0064 41.1307 36.9259 40.6461" stroke="black" stroke-width="3.4" stroke-linecap="round"/>
</g>
<defs>
<clipPath id="clip0_3_51">
<rect width="70" height="70" fill="white"/>
</clipPath>
</defs>
</svg>
