<svg width="70" height="70" viewBox="0 0 70 70" fill="none" xmlns="http://www.w3.org/2000/svg">
<g clip-path="url(#clip0_6_2)">
<path fill-rule="evenodd" clip-rule="evenodd" d="M46.7064 9.60658C47.9043 9.57714 48.9607 9.93047 50.0333 10.5365C51.0559 11.1143 52.1922 11.9799 53.5617 13.0802C54.8968 14.1529 55.8365 15.1266 56.4854 16.1173C57.1555 17.1406 57.4555 18.0913 57.6323 19.0116L57.6981 19.3512L57.6392 19.6929C57.4622 20.7197 56.9997 21.6277 56.3509 22.3512C58.3271 23.9638 59.7339 26.4505 60.9791 28.5949C62.5017 31.2168 62.9732 34.2587 63.2829 36.8643C63.6119 39.6324 62.9917 41.9987 62.366 44.1071C61.8988 45.6815 61.1493 47.2513 60.4044 48.6703C59.8421 49.7418 59.3562 50.5999 58.9003 51.4386C60.7973 52.007 62.5443 52.6347 63.8785 53.2064C64.6267 53.527 65.3007 53.8538 65.8099 54.165C66.0547 54.3147 66.3418 54.5082 66.5874 54.7441C66.7096 54.8615 66.8818 55.0467 67.0272 55.2975C67.1506 55.5107 67.3197 55.8859 67.3147 56.3683L67.3007 56.5814L67.2629 56.8147C67.0274 57.9457 66.1089 58.554 65.6546 58.8121C65.069 59.1448 64.3781 59.3826 63.8044 59.5589C63.1696 59.754 62.3847 59.7658 61.7128 59.7464C60.97 59.7251 60.074 59.6509 59.0787 59.5459C57.0923 59.3364 54.5328 58.9859 51.7095 58.623C49.734 58.369 48.4541 57.863 47.5466 57.3728C47.2355 57.2048 46.9276 57.0124 46.7518 56.9027C46.5627 56.9387 46.3205 57.0248 46.0137 57.1974C45.5562 57.4549 45.0687 57.839 44.5391 58.3123C44.2784 58.5452 44.0232 58.7845 43.7624 59.0307C43.5094 59.2696 43.241 59.5244 42.9841 59.7539C42.7291 59.9816 42.4451 60.2219 42.151 60.4273C41.8734 60.6212 41.4777 60.8627 41.0022 60.9925C39.9895 61.2687 39.1468 60.9308 38.5726 60.5806C36.9997 59.6209 35.7594 58.2254 34.9033 57.1805C34.6846 56.9135 34.4829 56.6584 34.3065 56.4358C34.1254 56.2073 33.9772 56.0211 33.8477 55.8648C33.8321 55.846 33.8164 55.8284 33.8023 55.8116C33.6866 55.8266 33.5202 55.8624 33.2924 55.9399C32.7748 56.1161 32.1616 56.4332 31.4673 56.8494C30.7459 57.282 30.1394 57.6925 29.4287 58.1379C28.8402 58.5066 28.0579 58.982 27.3346 59.182C24.8939 59.8569 21.6397 60.1176 19.1247 59.6315C15.1752 58.8682 13.4516 58.5061 10.313 58.9653C9.86209 59.0313 9.35795 59.0494 8.85226 58.9152C8.28574 58.7647 7.86679 58.4641 7.56638 58.1299C6.95828 57.4528 6.82128 56.5852 6.82503 56.0445L6.82876 55.4901L7.13026 55.0247C7.73636 54.0888 8.5582 53.0967 9.25775 52.3138C9.94347 51.5464 10.6159 50.8649 10.9554 50.5776L11.0515 50.4962L11.1575 50.4281C11.2274 50.3833 11.2995 50.3405 11.3732 50.2993C9.8586 48.5086 7.86814 45.9521 6.85185 43.9877C4.94607 40.3036 5.01714 35.3234 5.74462 31.2729C5.80266 30.9499 5.88197 30.6354 5.97631 30.329C5.309 30.2271 4.55405 30.0264 3.92194 29.6186C2.73296 28.8512 2.20775 27.6352 1.92271 26.7985C0.920778 23.8566 1.98488 20.864 2.8093 18.7465C3.88061 15.9952 5.96264 15.2432 7.17728 14.7379C8.65664 14.1224 10.5933 13.853 12.3061 13.8819C13.1781 13.8967 14.0634 13.9895 14.8653 14.1868C15.63 14.3751 16.5038 14.7029 17.1796 15.3122C18.0938 16.1368 18.5281 17.1933 18.7387 18.1703C18.7475 18.2109 18.7538 18.2524 18.7618 18.2932C19.3998 18.1072 20.0918 17.9381 20.8376 17.7815C22.7811 17.3734 25.2071 17.0244 28.19 16.6936C31.5406 16.3219 35.7515 16.5617 39.0822 16.8231C38.9327 15.6559 39.246 14.6077 39.6646 13.7671C40.0975 12.8983 40.6968 12.1399 41.2097 11.5451C42.0222 10.6029 43.0792 10.145 44.0239 9.9093C44.9569 9.6766 45.9239 9.62584 46.7064 9.60658ZM47.0475 21.8842C45.3422 21.4174 43.2064 20.9764 39.8313 20.6958C36.32 20.4038 31.9038 20.1041 28.609 20.4696C25.6744 20.7951 23.3874 21.1286 21.6187 21.5C19.8302 21.8755 18.6851 22.2678 17.9671 22.6593C16.0692 23.6941 14.3223 24.8303 13.0044 26.432C12.1461 27.4752 11.3537 28.3868 10.6906 29.353C10.0375 30.3045 9.62838 31.1484 9.48527 31.9447C8.80785 35.7164 8.90083 39.6762 10.2276 42.2412C11.4053 44.5174 14.4665 48.1554 15.6599 49.4155C16.2224 50.0093 16.3245 50.8699 15.9823 51.5627C15.9237 52.4086 15.302 53.1406 14.4296 53.2999C13.7298 53.4277 13.4209 53.5314 13.2919 53.5863C13.0715 53.796 12.6245 54.2485 12.0909 54.8457C12.0494 54.8921 12.0087 54.9399 11.9671 54.9871C14.6341 54.8594 16.7345 55.2999 19.8462 55.9012C21.6766 56.255 24.3283 56.0711 26.322 55.5198C26.3267 55.5183 26.3537 55.5092 26.407 55.4861C26.4685 55.4595 26.549 55.4206 26.651 55.3665C26.8586 55.2563 27.1091 55.1073 27.4111 54.9181C27.9608 54.5735 28.7745 54.0325 29.5129 53.5897C30.2785 53.1308 31.1663 52.6491 32.0688 52.342C32.8889 52.0629 33.95 51.8482 35.0252 52.1423L35.2405 52.208L35.4261 52.2811C35.8413 52.4655 36.1304 52.7429 36.2476 52.8569C36.4352 53.0396 36.6167 53.2505 36.7737 53.44C36.9354 53.6351 37.1121 53.8578 37.2851 54.0761C37.4628 54.3004 37.6462 54.5327 37.8427 54.7725C38.5585 55.6462 39.3536 56.5093 40.2208 57.1179C40.2889 57.0611 40.3668 56.9963 40.4528 56.9195C40.6622 56.7325 40.8884 56.5181 41.1545 56.2669C41.4128 56.0231 41.7025 55.7507 42.0067 55.4788C42.6072 54.9422 43.3348 54.3443 44.149 53.8859C44.9643 53.4271 45.9806 53.0422 47.1292 53.0836C47.8426 53.1094 48.4 53.4582 48.596 53.576C48.9119 53.7658 49.0476 53.8647 49.3528 54.0296C49.8516 54.299 50.6835 54.6592 52.194 54.8534C55.0725 55.2234 57.5487 55.5631 59.4778 55.7666C59.704 55.7904 59.9206 55.8113 60.1268 55.8308C59.1952 55.5037 58.161 55.1726 57.0779 54.8644C56.7615 54.7744 55.9602 54.5517 55.3642 53.9817C55.0051 53.6382 54.6771 53.1329 54.5965 52.47C54.5198 51.8381 54.6947 51.2806 54.9116 50.8543L55.3998 49.9249C55.9298 48.9398 56.5572 47.8229 57.0394 46.9043C57.7529 45.5449 58.3633 44.2381 58.7229 43.0264C59.3298 40.9811 59.7411 39.2563 59.5103 37.3134C59.2018 34.7178 58.7851 32.3837 57.6936 30.5039C56.2519 28.0211 55.1514 26.1792 53.7634 25.1474C52.0749 23.8922 49.9781 22.6863 47.0475 21.8842Z" fill="black"/>
<path d="M20.8147 39.6517C22.7199 39.9047 24.2485 38.9028 24.545 38.6828C25.0099 38.4052 25.5801 37.9112 25.8121 37.697C26.2299 37.2469 26.6547 36.4348 27.0138 33.9642C26.8949 32.6835 26.9703 30.9515 25.3546 30.2584C23.6908 29.5447 21.9911 28.7542 21.0182 29.3238C20.5482 29.599 19.5333 30.3364 18.6358 31.7429C17.4448 33.6095 16.6513 35.3171 17.2807 36.9784C17.5464 37.6798 17.874 38.3366 18.4457 38.6828L18.4634 38.6935C19.0532 39.0507 19.8296 39.5209 20.8147 39.6517Z" stroke="black" stroke-width="3.4" stroke-linecap="round"/>
<path d="M38.2333 37.329C40.545 38.5421 41.5654 38.4706 42.045 38.5421C42.7058 38.3896 44.1266 38.2503 44.545 37.9954C45.9006 36.4319 46.6182 35.3686 46.89 33.7322C46.6997 32.2967 45.5767 30.7859 44.1227 29.8223C42.9002 29.0121 41.2335 28.1088 40.2387 28.7096L40.2256 28.7175C38.6914 29.6442 37.4038 30.4219 36.9568 31.4927C36.508 32.5679 36.1 34.4808 36.6707 35.8913C36.8996 36.4571 37.37 36.876 38.2333 37.329Z" stroke="black" stroke-width="3.4" stroke-linecap="round"/>
<path d="M29.4773 40.479C29.7488 40.8967 30.4134 41.8343 30.8633 42.1314C31.2904 42.4134 32.045 41.4968 32.8216 40.9174C33.8347 40.1613 34.8114 41.6831 35.4269 41.4968C35.7392 41.3572 36.0514 41.1261 36.9708 40.6415" stroke="black" stroke-width="3.4" stroke-linecap="round"/>
</g>
<defs>
<clipPath id="clip0_6_2">
<rect width="70" height="70" fill="white"/>
</clipPath>
</defs>
</svg>
